<svg width="102" height="36" viewBox="0 0 102 36" fill="none" xmlns="http://www.w3.org/2000/svg">
    <path fill-rule="evenodd" clip-rule="evenodd" d="M100.396 18.7342L2.10684 0.885826C1.12851 0.699421 0.206146 1.3527 0.0290833 2.322C-0.147125 3.29131 0.496552 4.22029 1.46793 4.39629L48.7682 12.9856L37.7851 24.9519H29.4749C27.5109 24.9519 25.9128 26.5606 25.9128 28.5391V32.0738C25.9128 34.0523 27.5105 35.661 29.4749 35.661H74.1765C76.1406 35.661 77.7387 34.0523 77.7387 32.0738V28.5391C77.7387 26.5606 76.141 24.9519 74.1765 24.9519H65.8659L56.1065 14.3186L99.7573 22.2451C99.8654 22.2659 99.9726 22.2746 100.078 22.2746C100.925 22.2746 101.678 21.6716 101.835 20.8085C102.012 19.8392 101.368 18.9102 100.396 18.7342ZM74.1644 28.5391L74.1765 32.0911L29.4871 32.0738V28.5391L29.4749 28.5217L74.1644 28.5391ZM42.6347 24.9519H61.0168L51.826 14.9368L42.6347 24.9519Z" fill="#6F9CD6" />
</svg>
